<svg id="logo-sezane" viewBox="0 0 126 41" xmlns="http://www.w3.org/2000/svg"><path d="M104.9 21.4h2.4c.5 0 1-.1 1.5-.1.4-.1.9-.1 1.3-.2.5-.1.9-.1 1.4-.3.2-.1.5-.1.8-.1.5-.1 1.1-.1 1.7-.2.5-.1 1-.1 1.6-.2.3 0 .7-.1 1-.2l2.4-.6 1.6-.3c.5-.1 1-.2 1.5-.4s1.1-.3 1.6-.4c.5-.1.9-.3 1.3-.5s.6-.1.8.3c.1.2.2.4.2.7 0 .3-.2.5-.4.7-.4.2-.8.3-1.2.4l-1.7.3c-.3 0-.6.1-.8.2-.8.2-1.6.3-2.5.5-1.4.3-2.8.5-4.1 1-.4.1-.7.3-1.1.4-.5.2-.9.3-1.4.4-.5.1-1 .2-1.5.2-.6.1-1.1.2-1.7.2-.3.2-.7 0-1 .2h-.1c-.4 0-.9.1-1.3.1s-.8 0-1.2.1c-.2.1-.5 0-.7.1-.7.1-1.3.2-2 0-.2-.1-.5-.1-.8-.1-.6-.1-1.2-.2-1.8-.5-.7-.4-1.1-.9-1.4-1.6-.1-.2-.2-.4-.3-.7-.1-.2-.1-.2-.3-.1-.5.2-1.1.4-1.6.7-.6.3-1.2.4-1.8.6-.7.2-1.4.3-2.1.4-.5.1-1 .2-1.5 0s-.9-.4-1.2-.8c-.4-.7-.6-1.4-.7-2.1-.1-.7-.1-1.3-.1-2 0-.4.1-.7.2-1.1.1-.4.2-.7.2-1.1 0-.2-.1-.3-.3-.3-.2 0-.4.1-.7.2-.4.1-.8.4-1.2.7l-1.3 1c-.6.5-1.2 1-1.9 1.5-.6.5-1.2.9-1.8 1.4-.8.6-1.6 1.1-2.4 1.7-.2.1-.5.2-.7.2-.4.1-.6 0-.8-.4-.2-.4-.4-.7-.6-1.1-.1-.3-.1-.7-.1-1 0-.7.4-1.3.6-1.9l.9-1.8v-.1s-.1 0-.1.1l-.4.4c-.5.5-1 .9-1.5 1.3-.4.4-.9.7-1.3 1.1-.5.4-1 .7-1.4 1.1l-1.8 1.2c-.6.4-1.3.8-1.9 1.1-.4.2-.7.4-1.1.6-.4.2-.8.3-1.2.2-.2 0-.5-.1-.6-.3-.6-.6-1-1.2-1.2-2-.1-.4-.2-.7 0-1.1V19h-.1c-.3.2-.5.4-.8.6-1.1.8-2.2 1.5-3.4 2.1-.5.2-.9.3-1.4.1-.3-.1-.6-.3-.8-.6-.5-.6-.9-1.2-1.3-1.9-.2-.2-.2-.2-.4-.1-.7.4-1.4.8-2.2 1.2-.4.2-.9.4-1.4.6-.5.2-.9.4-1.4.6-1 .5-2 1.1-3 1.6-.7.4-1.3.7-1.9 1.1-.1 0-.1.1-.2.2s-.1.1 0 .2.1.3.2.4c.4.6.7 1.3.9 2 .3 1 .3 2 .3 3.1 0 1-.3 2-.7 2.9-.4.8-.9 1.5-1.4 2.2-.5.6-1 1.1-1.6 1.6-.8.7-1.6 1.3-2.5 1.8-1.1.6-2.3 1.1-3.5 1.6-.5.2-1 .3-1.5.3h-1.4c-.4 0-.8-.1-1.2-.2-.5-.1-.8-.5-1.1-.8-.2-.3-.4-.5-.6-.7-.5-.5-.7-1-.8-1.7 0-.2-.1-.3-.1-.5 0-.6.1-1.1.4-1.7.5-.9 1.1-1.8 1.7-2.7.8-1.1 1.7-2 2.7-2.9.4-.4.8-.7 1.2-1 .4-.3.7-.6 1.1-.9.6-.5 1.2-1 1.8-1.4.9-.7 1.8-1.3 2.7-1.8.1 0 .1-.1.1-.1.2-.2.2-.2 0-.3-.3-.3-.5-.6-.6-1-.1-.3-.2-.6-.3-1-.1-.4.1-1.1.7-1.3.6-.2 1.3-.4 1.9-.7.7-.3 1.4-.6 2-1.1.5-.4.9-.9 1.3-1.4.2-.3.1-.4-.1-.6-.4-.2-.8-.4-1.3-.4-1.5-.1-2.7.5-3.9 1.4-.7.5-1.4 1-2.2 1.6-.7.5-1.3 1-2 1.5-1.2.9-2.5 1.8-3.9 2.4-1 .4-1.9.7-3 .9-.4.1-.8.1-1.2.1-.5 0-1-.2-1.4-.5-.8-.5-1.2-1.3-1.5-2.1-.2-.5-.3-1-.4-1.5 0-.1-.1-.2-.1-.3-.1-.1-.2-.2-.3-.2-.4 0-.8 0-1.1.1-.2.1-.3.2-.3.4v1.6c0 1-.2 2-.6 3-.4 1-1 1.9-1.7 2.8-.7.9-1.5 1.5-2.5 1.9-.7.3-1.4.6-2.1.8-.5.1-1 .3-1.6.2-.6 0-1.2-.2-1.7-.5-.4-.2-.7-.6-1.1-.9-.5-.3-.9-.8-1.3-1.2l-.2-.2c-.4-.5-.4-1-.1-1.6.4-.8.9-1.5 1.6-2 .4-.4.9-.7 1.4-1 .4-.2.8-.5 1.2-.8.8-.5 1.5-.9 2.4-1.2.1 0 .2-.1.2-.1.9-.5 1.9-.9 2.8-1.3.2-.1.4-.2.7-.3.2-.1.2-.2.2-.4-.1-.2-.1-.4-.2-.6-.4-1.1-.8-2.2-1.2-3.4-.2-.6-.5-1.3-.7-1.9-.4-1.1-.8-2.2-1.1-3.3 0-.2-.1-.4-.1-.5V9c-.1 0-.2.1-.4.2-.1.1-.2.1-.2.2-1.8 1.8-3.7 3.6-5.4 5.5-.8.8-1.6 1.7-2.4 2.5-.5.6-1.1 1-1.7 1.6-.4.4-.9.8-1.4 1.1-.5.4-1.1.8-1.6 1.3l-1.4 1.1c-.7.5-1.4 1.1-2.1 1.5-.9.6-1.7 1.2-2.6 1.9-.1.1-.2.1-.3.2-.4.2-.7.4-1.2.4s-.9 0-1.3-.2H.2c-.1-.8-.2-.9-.2-1 0-.1.1-.1.2-.2.5-.2.9-.6 1.3-.9.5-.4.9-.8 1.4-1.1.5-.4.9-.8 1.4-1.1l1.4-1.1c.2-.2.5-.4.7-.6.6-.6 1.3-1.3 2-1.8.4-.3.8-.7 1.2-1 .6-.5 1.1-1 1.7-1.4.3-.2.5-.5.8-.7.4-.4.8-.7 1.2-1.1.4-.4.8-.8 1.3-1.1l.1-.1c.5-.5 1-.9 1.5-1.4.8-.8 1.6-1.6 2.4-2.3.8-.7 1.5-1.4 2.2-2.1.2-.2.3-.3.4-.5l.3-.3c.9-.6 1.5-1.4 2-2.3a15.26 15.26 0 0 1 3-3.6l.3-.3c.3-.3.6-.3.9-.1.2.2.5.3.7.5l.1.1c.3.2.3.2.2.6-.2.5-.5 1-.9 1.4l-1.1 1.1A8 8 0 0 0 25.2 6c-.3.6-.5 1.2-.5 1.8 0 .3-.1.6-.1.9 0 .7.2 1.4.4 2.1.3.7.5 1.5.9 2.2.3.6.5 1.2.7 1.7.4.9.7 1.9 1.1 2.9 0 .1 0 .1.1.2.1.2.3.3.4.2.5-.2 1-.1 1.5-.3.4-.1.7-.2.9-.6.3-.5.5-.9.8-1.4.5-.9 1.2-1.7 2-2.4.5-.4 1-.8 1.6-1.2.4-.2.9-.5 1.4-.6.2-.1.3-.1.5-.1.1-.1.3 0 .4.1.5.4 1 .8 1.3 1.4.3.5.4 1.1.4 1.7-.1.5-.2 1-.5 1.4-.4.5-.8.8-1.3 1.1-.9.5-1.8.9-2.8 1.2-.6.2-1.1.4-1.7.5-.4.1-.6.4-.6.7-.1.4-.1.8-.1 1.3 0 .6.4.9 1 .8 1.7-.3 3.3-1 4.9-1.8.8-.5 1.6-1 2.3-1.5l3.1-2.2c.8-.5 1.5-1.1 2.3-1.6.7-.5 1.5-.8 2.3-.9 1.1-.1 2.1-.1 3 .6l.2.2c.4.3.6.7.9 1 .3.4.5.9.6 1.4.1.6-.1 1.1-.4 1.6-.5.8-1.2 1.5-1.9 2.1-.4.4-1 .7-1.5 1-.2.1-.5.3-.6.5v.1c0 .1.1 0 .1 0l.6-.3c1.3-.8 2.7-1.5 4.1-2.2 1.1-.5 2.2-1.2 3.4-1.7 1.1-.5 2.2-1.1 3.3-1.6.4-.2.9-.5 1.3-.7.3-.2.5-.4.7-.7.3-.4.6-.7.9-1 .4-.3.7-.6 1-.9.9-.7 1.8-1.3 2.8-1.9.4-.2.7-.4 1.1-.7.7-.5 1.4-.8 2.2-1.1.5-.1 1.1-.3 1.6-.4.2 0 .5-.1.7-.1.5 0 .9.2 1.3.5.2.2.3.4.5.5.1 0 .1.1.1.1.2.5.4 1 .1 1.5-.1.3-.3.6-.5.8-1 1-1.8 2.1-2.6 3.2-.5.8-1 1.6-1.3 2.5-.2.5-.4 1-.5 1.6 0 .2-.1.5-.1.7 0 .1 0 .2.2.1.7-.4 1.5-.7 2.2-1.1.7-.4 1.4-.9 2.1-1.3.6-.3 1.3-.7 1.9-1.1.5-.3 1-.7 1.4-1.1l2.4-2.1c.4-.4.8-.7 1.2-1.1.5-.5 1-.9 1.5-1.4.2-.2.4-.1.5 0 .5.3.9.7 1.1 1.2.1.2 0 .4 0 .6-.2.5-.5 1-.8 1.5 0 .1-.1.2-.2.3-.3.6-.7 1.3-1 1.9-.3.5-.5 1-.8 1.6 0 .1-.1.2-.1.3v.1h.1c.3-.3.7-.4 1-.6.7-.5 1.5-1 2.2-1.6.7-.5 1.3-1 2-1.5.8-.5 1.5-1.1 2.3-1.6.2-.2.4-.3.7-.5.3-.2.7-.3 1.1-.2.4.1.7.3.9.6.3.4.6.8.7 1.4.1.4.2.7.1 1.1v.3c0 .6-.1 1.2-.2 1.8-.1.5-.2.9-.1 1.4 0 .4.3.7.7.7.4 0 .8-.1 1.1-.2 1.1-.4 2.3-.6 3.4-.9.5-.2 1-.3 1.5-.5.3-.1.5-.2.8-.4.2-.1.3-.3.4-.5.1-.3.3-.6.4-.9.3-.7.8-1.2 1.3-1.8.9-1 2-1.7 3.1-2.4.6-.4 1.2-.7 1.9-.8.3-.1.6-.2.9-.2.2 0 .4-.1.5-.1.4 0 .7 0 1.1.1.2 0 .3.2.4.4.3.3.4.7.2 1.1-.1.2-.2.4 0 .6v.2c-.1.7-.3 1.4-.9 1.8-.3.2-.6.4-1 .6-.9.5-1.8.9-2.7 1.4-.8.4-1.7.9-2.5 1.3a3 3 0 0 1-1 .4c-.3.1-.5.3-.7.5-.1.1-.1.3 0 .4.1.3.4.5.7.6.4.1.9.2 1.4.3.7.6 1.7.4 2.5.5zm-55.8 7.3c0-.6 0-1.3-.2-1.9a4 4 0 0 0-1-1.8c-.2-.2-.2-.2-.4 0-.2.1-.5.3-.7.5-1.2.7-2.3 1.4-3.5 2.1-.8.5-1.5 1.1-2.1 1.7l-1.6 1.6c-.3.3-.6.7-.9 1.1l-1.2 1.5c-.6.8-1.2 1.7-1.6 2.6-.2.4-.3.9-.2 1.4 0 .2.1.4.3.6.3.4.7.3 1.1.4.2 0 .4.1.5 0 .3-.1.6-.1.9-.1.6-.1 1.2-.2 1.8-.4 1.2-.3 2.2-.9 3.3-1.5.9-.5 1.8-1.2 2.6-1.9s1.5-1.4 2-2.3c.2-.4.5-.9.6-1.3.2-.7.3-1.5.3-2.3zm-23.2-8v-.6c0-.2-.1-.4-.2-.6-.1-.1-.1-.1-.2-.1-.5.2-.9.5-1.4.7-.4.2-.8.5-1.2.7-.3.1-.6.2-.8.5-.5.5-1 .9-1.6 1.4-.4.3-.8.6-1.1.9-.4.3-.8.7-1.1 1.2-.3.5-.6.9-.9 1.3-.4.5-.4 1-.2 1.6.1.2.3.4.5.4.4.1.7.1 1.1.1.2 0 .3-.1.5-.1.3 0 .5-.1.8-.1 1.5-.5 2.8-1.2 3.9-2.3.6-.6 1.1-1.4 1.3-2.2.6-1 .7-1.9.6-2.8zm35.5-1.2s0 .1 0 0c0 .3-.1.5.1.6.1.1.2-.1.4-.2.3-.1.5-.3.8-.4.1-.1.2-.1.4-.2 1.6-1 3.2-2.1 4.7-3.3.5-.4.9-.9 1.3-1.4.4-.5.8-1.1 1.1-1.6.3-.4.5-.8.8-1.2.1-.1.1-.2.1-.3 0-.1-.1-.2-.2-.2-.2.1-.5.1-.7.2-.4.2-.8.3-1.2.5-.9.4-1.8.9-2.7 1.4-.9.5-1.6 1.2-2.4 1.9-.7.6-1.4 1.3-1.9 2.1-.4.7-.7 1.3-.6 2.1zm45.4-5.9c-.9 0-1.6.3-2.3.8-.7.4-1.3.9-1.9 1.4-.5.4-.9.8-1.3 1.2l-.1.1h.1c.2-.1.4-.2.6-.2l2.1-.9c.8-.3 1.5-.7 2.2-1.2.4-.3.7-.6 1.1-.9.1-.1 0-.1 0-.2-.1-.1-.3-.1-.5-.1zm-72.7 2.7h.1c.6-.3 1.1-.6 1.6-1 .3-.2.5-.5.6-.8 0-.1.1-.1 0-.2 0-.1-.1 0-.2 0-.9.4-1.6 1-2.2 1.7 0 .1-.1.1-.1.2.2 0 .1 0 .2.1z"/><path d="M32.4 10.8c-.5.1-.9-.1-1.3-.5-.1-.1-.1-.2 0-.3.1-.1.2-.2.3-.2.4-.2.9-.4 1.3-.7.7-.4 1.4-.8 2.2-1.2.3-.2.6-.3.9-.5.9-.5 1.9-1 2.8-1.5.6-.4 1.3-.7 1.9-1 .3-.2.6-.3.9-.5.3-.2.7-.2 1-.3.2 0 .4.1.7.1.2.1.3.1.3.4V5c0 .2-.1.4-.3.6-.8.6-1.6 1.1-2.4 1.7-1.3.8-2.6 1.6-4 2.3-.9.4-1.9.8-2.9 1-.4.1-.9.3-1.4.2z"/></svg>