<svg id="logo-bcorp" viewBox="0 0 33 55" xmlns="http://www.w3.org/2000/svg"><path d="M9.86 16.07h6.57c1.6 0 3.7 0 4.79.66 1.2.72 2.13 2.01 2.13 3.8a4.2 4.2 0 0 1-2.69 4.07v.05c2.23.46 3.45 2.14 3.45 4.38 0 2.67-1.9 5.21-5.5 5.21H9.86V16.07zm2.41 7.81h4.82c2.74 0 3.86-1 3.86-2.9 0-2.52-1.78-2.88-3.86-2.88h-4.82v5.78zm0 8.32h6.04c2.07 0 3.4-1.27 3.4-3.25 0-2.37-1.9-3.03-3.93-3.03h-5.5v6.28z"/><path d="M30.27 25.16A13.8 13.8 0 0 1 16.5 38.98 13.8 13.8 0 0 1 2.73 25.16 13.8 13.8 0 0 1 16.5 11.34c7.6 0 13.77 6.2 13.77 13.82zM16.5 9.24C7.74 9.24.64 16.36.64 25.16s7.1 15.91 15.86 15.91a15.9 15.9 0 0 0 15.86-15.91c0-8.8-7.1-15.92-15.86-15.92zm15.83 35.2H.67v2.08h31.66v-2.09zm-1-2.3l.12-.01a.38.38 0 0 0 .1-.02.16.16 0 0 0 .06-.06.19.19 0 0 0 .02-.1.17.17 0 0 0-.02-.09.12.12 0 0 0-.06-.05.25.25 0 0 0-.08-.02h-.31v.35h.18zm.08-.5c.13 0 .23.03.3.08.06.05.09.13.09.24 0 .1-.03.17-.08.22a.39.39 0 0 1-.21.08l.31.49h-.18l-.3-.48h-.18v.48h-.18v-1.1h.43v-.01zm-.77.87a.77.77 0 0 0 .4.44.815.815 0 0 0 .61 0 .77.77 0 0 0 .26-.18.72.72 0 0 0 .16-.26.85.85 0 0 0-.16-.9.78.78 0 0 0-.86-.16.75.75 0 0 0-.41.42.84.84 0 0 0-.06.32.75.75 0 0 0 .06.32zm-.16-.7a.94.94 0 0 1 .5-.49.92.92 0 0 1 .37-.07.94.94 0 0 1 .67.27.92.92 0 0 1 .28.67.9.9 0 0 1-.08.38.93.93 0 0 1-.2.3.9.9 0 0 1-.3.2 1 1 0 0 1-.74 0 .93.93 0 0 1-.57-.88.84.84 0 0 1 .07-.37zM4.5 2.25a1.22 1.22 0 0 0-.28-.32 1.31 1.31 0 0 0-.83-.29c-.28 0-.52.06-.72.17a1.35 1.35 0 0 0-.48.44 1.96 1.96 0 0 0-.27.63 3.19 3.19 0 0 0-.08.73c0 .24.02.48.08.7.06.23.15.44.27.62a1.36 1.36 0 0 0 1.2.6c.39 0 .7-.11.9-.35.22-.23.35-.54.4-.93h1.22c-.03.36-.11.68-.25.97a2.29 2.29 0 0 1-.53.74c-.22.2-.47.36-.77.47a2.85 2.85 0 0 1-.97.16 2.9 2.9 0 0 1-1.18-.23 2.51 2.51 0 0 1-.88-.63 2.8 2.8 0 0 1-.56-.95 3.49 3.49 0 0 1-.2-1.17c0-.43.07-.83.2-1.2.13-.36.31-.68.55-.95.24-.28.54-.5.9-.65A2.88 2.88 0 0 1 3.4.57c.32 0 .62.05.9.14.28.09.53.22.75.4a2.17 2.17 0 0 1 .82 1.52H4.65a1.02 1.02 0 0 0-.14-.4zm3.05 3.21c.17.17.42.25.74.25.23 0 .42-.05.6-.17a.74.74 0 0 0 .3-.37h1c-.16.5-.4.86-.74 1.08-.33.21-.73.32-1.2.32-.33 0-.62-.05-.88-.16a1.88 1.88 0 0 1-.67-.44 1.99 1.99 0 0 1-.42-.7 2.54 2.54 0 0 1-.15-.88c0-.31.05-.6.15-.87a2.05 2.05 0 0 1 1.1-1.16c.27-.1.55-.16.87-.16a1.84 1.84 0 0 1 1.57.76c.16.22.29.49.36.78.08.3.1.6.08.93H7.28c.02.36.1.63.28.8zm1.29-2.19c-.14-.14-.35-.22-.62-.22a.98.98 0 0 0-.46.1.89.89 0 0 0-.29.22.85.85 0 0 0-.15.29c-.03.1-.04.2-.05.27h1.85a1.3 1.3 0 0 0-.28-.66zm3.02-.97v.77h.01a1.4 1.4 0 0 1 .53-.64c.12-.08.25-.14.38-.18.14-.04.27-.06.42-.06.07 0 .15 0 .25.04v1.06a1.99 1.99 0 0 0-.2-.03l-.21-.01a1.22 1.22 0 0 0-.53.1.9.9 0 0 0-.35.3 1.12 1.12 0 0 0-.19.41 2.4 2.4 0 0 0-.05.53v1.87h-1.14V2.3h1.08zm4.63 0v.76h-.83v2.06c0 .2.03.33.1.4.05.05.18.09.37.09l.19-.01.17-.02v.88a2.86 2.86 0 0 1-.33.03 6.2 6.2 0 0 1-.34.01 3.4 3.4 0 0 1-.5-.03 1.12 1.12 0 0 1-.42-.15.75.75 0 0 1-.28-.3 1.07 1.07 0 0 1-.1-.5V3.06h-.7v-.77h.7V1.04h1.13V2.3h.84zm.66-.65V.7h1.14v.94h-1.14zm1.14.65v4.16h-1.14V2.29h1.14zm.45.76V2.3h.68v-.33c0-.37.12-.67.35-.9.23-.24.58-.36 1.04-.36l.3.01.3.02v.86a3.43 3.43 0 0 0-.41-.02c-.16 0-.27.03-.34.1-.06.08-.1.2-.1.37v.25h.79v.77h-.78v3.4h-1.14v-3.4h-.68zm3.38-1.4V.7h1.14v.94h-1.14zm1.14.64v4.16h-1.14V2.29h1.14zm1.8 3.16c.16.17.41.25.73.25.23 0 .43-.05.6-.17a.74.74 0 0 0 .3-.37h1c-.16.5-.4.86-.73 1.08-.34.21-.74.32-1.2.32-.33 0-.63-.05-.89-.16a1.88 1.88 0 0 1-.66-.44 1.98 1.98 0 0 1-.42-.7 2.54 2.54 0 0 1-.15-.88c0-.31.05-.6.15-.87a1.98 1.98 0 0 1 1.1-1.16c.26-.11.55-.17.86-.17a1.84 1.84 0 0 1 1.57.76c.17.23.3.49.37.78.07.3.1.6.08.93h-3c.02.37.11.64.28.8zm1.28-2.19c-.13-.14-.34-.22-.62-.22a.98.98 0 0 0-.45.1.89.89 0 0 0-.3.22.85.85 0 0 0-.14.29l-.06.27h1.85a1.32 1.32 0 0 0-.28-.66zm4.88 2.66a1.2 1.2 0 0 1-.52.49c-.22.1-.46.15-.74.15a1.76 1.76 0 0 1-.81-.19 1.62 1.62 0 0 1-.59-.49 2.31 2.31 0 0 1-.34-.7 2.95 2.95 0 0 1-.12-.85c0-.28.04-.54.12-.8a2.12 2.12 0 0 1 .34-.7 1.68 1.68 0 0 1 1.38-.66c.24 0 .48.06.7.16.22.11.4.26.52.47h.02V.7h1.14v5.75h-1.09v-.53zm-.05-2.06a1.22 1.22 0 0 0-.16-.42.92.92 0 0 0-.3-.3.87.87 0 0 0-.47-.1.92.92 0 0 0-.47.1.92.92 0 0 0-.31.3 1.38 1.38 0 0 0-.17.43 2.22 2.22 0 0 0 0 .97c.04.17.1.3.19.44.08.12.18.22.3.3.13.08.28.12.46.12a.9.9 0 0 0 .47-.11.86.86 0 0 0 .3-.3c.08-.13.13-.28.16-.44a2.48 2.48 0 0 0 0-.99zM3.45 50.62c-.06-.4-.44-.71-.88-.71-.8 0-1.1.68-1.1 1.39 0 .67.3 1.35 1.1 1.35.54 0 .85-.37.91-.9h.86c-.09 1-.78 1.65-1.77 1.65-1.25 0-1.98-.94-1.98-2.1 0-1.2.73-2.14 1.98-2.14.88 0 1.63.52 1.74 1.46h-.86zm2.74-.32c.92 0 1.51.6 1.51 1.54 0 .93-.59 1.54-1.5 1.54-.92 0-1.52-.61-1.52-1.54s.6-1.54 1.51-1.54zm0 2.48c.55 0 .71-.47.71-.93 0-.48-.16-.94-.7-.94-.55 0-.72.47-.72.94 0 .46.17.93.71.93zm2.01-2.4h.76v.54h.01c.15-.37.55-.63.94-.63a.6.6 0 0 1 .17.03v.75a1.54 1.54 0 0 0-.29-.03c-.58 0-.79.43-.79.94v1.32h-.8v-2.93zm2.2 0h.76v.37c.2-.31.51-.45.87-.45.92 0 1.33.74 1.33 1.57 0 .78-.43 1.51-1.28 1.51-.35 0-.68-.15-.87-.44h-.02v1.4h-.8v-3.96zm2.16 1.47c0-.47-.19-.95-.7-.95-.53 0-.7.47-.7.95s.19.93.7.93c.53 0 .7-.46.7-.93zm2.56-1.55c.92 0 1.51.6 1.51 1.54 0 .93-.59 1.54-1.51 1.54-.91 0-1.5-.61-1.5-1.54s.59-1.54 1.5-1.54zm0 2.48c.55 0 .71-.47.71-.93 0-.48-.16-.94-.71-.94-.54 0-.7.47-.7.94 0 .46.16.93.7.93zm2.01-2.4h.76v.54h.02c.14-.37.54-.63.93-.63a.6.6 0 0 1 .17.03v.75a1.5 1.5 0 0 0-.29-.03c-.59 0-.8.43-.8.94v1.32h-.8v-2.93h.01zm2.12.9c.04-.76.71-.98 1.37-.98.58 0 1.28.13 1.28.83v1.52c0 .27.03.53.1.66h-.81a1.2 1.2 0 0 1-.06-.29c-.25.27-.62.36-.98.36-.55 0-1-.27-1-.87 0-.67.5-.82 1-.9.5-.07.95-.05.95-.38 0-.35-.24-.4-.52-.4-.3 0-.5.13-.53.45h-.8zm1.85.6c-.14.11-.42.12-.67.17-.25.05-.47.13-.47.43s.23.37.49.37c.62 0 .65-.5.65-.67v-.3zm2.42-1.5h.59v.53h-.6v1.45c0 .28.08.34.35.34.08 0 .16 0 .25-.02v.63c-.14.02-.32.03-.47.03-.5 0-.92-.12-.92-.7v-1.72h-.49v-.54h.49v-.88h.8v.88zm2-.46h-.8v-.66h.8v.66zm-.8.46h.8v2.92h-.8v-2.92zm2.84-.08c.92 0 1.51.6 1.51 1.54 0 .93-.6 1.54-1.51 1.54-.92 0-1.5-.61-1.5-1.54s.58-1.54 1.5-1.54zm0 2.48c.55 0 .71-.47.71-.93 0-.48-.16-.94-.71-.94-.54 0-.7.47-.7.94 0 .46.16.93.7.93zm2.03-2.4h.76v.4h.02c.2-.33.55-.48.9-.48.84 0 1.06.48 1.06 1.2v1.8h-.8v-1.65c0-.48-.14-.72-.52-.72-.43 0-.62.24-.62.84v1.54h-.8v-2.93z"/></svg>