<svg id="logo-societeamission" viewBox="0 0 39 51" xmlns="http://www.w3.org/2000/svg"><path d="M1.76 45.1a1.176 1.176 0 0 0 .78-.27 1.05 1.05 0 0 0 .32-.77.9.9 0 0 0-.3-.7 1.44 1.44 0 0 0-.16-.14 2.26 2.26 0 0 0-.38-.2 8.06 8.06 0 0 1-.4-.18 1.27 1.27 0 0 1-.3-.2.38.38 0 0 1-.13-.29c0-.08.02-.15.05-.2a.48.48 0 0 1 .14-.16.6.6 0 0 1 .18-.1.72.72 0 0 1 .22-.03.95.95 0 0 1 .63.25l.3-.38a1.5 1.5 0 0 0-.64-.33 1.32 1.32 0 0 0-.74.04c-.13.05-.24.12-.33.21a.98.98 0 0 0-.23.31.89.89 0 0 0-.08.37c0 .2.04.35.13.48.08.13.19.24.32.32.12.08.24.15.39.2l.39.18c.12.07.23.14.3.22a.46.46 0 0 1 .13.34.49.49 0 0 1-.05.22.56.56 0 0 1-.33.29.7.7 0 0 1-.23.04.9.9 0 0 1-.5-.14 1.4 1.4 0 0 1-.36-.33l-.35.35a1.52 1.52 0 0 0 1.23.6zm6.55-3.2a1.7 1.7 0 0 0-1.25-.53c-.25 0-.48.05-.7.14a1.73 1.73 0 0 0-.55.4 1.83 1.83 0 0 0-.38.59 2 2 0 0 0-.13.74 1.98 1.98 0 0 0 .5 1.33 1.7 1.7 0 0 0 1.26.54 1.7 1.7 0 0 0 1.25-.54 1.86 1.86 0 0 0 .5-1.33 2 2 0 0 0-.13-.74 1.83 1.83 0 0 0-.37-.6zm-.09 1.89a1.32 1.32 0 0 1-.26.43 1.2 1.2 0 0 1-.9.4 1.19 1.19 0 0 1-.9-.4 1.33 1.33 0 0 1-.26-.43 1.54 1.54 0 0 1-.1-.55c0-.2.03-.38.1-.55.06-.17.15-.31.26-.44a1.19 1.19 0 0 1 .9-.39 1.2 1.2 0 0 1 .9.4c.11.12.2.26.26.43a1.56 1.56 0 0 1 0 1.1zm5.24 1.27a1.73 1.73 0 0 0 .97-.63l-.36-.33a1.7 1.7 0 0 1-.17.19 1.3 1.3 0 0 1-.5.28 1.13 1.13 0 0 1-.34.04c-.19 0-.36-.03-.52-.1a1.25 1.25 0 0 1-.7-.71c-.07-.17-.1-.36-.1-.56 0-.2.03-.38.1-.55.06-.17.15-.31.27-.44a1.21 1.21 0 0 1 .9-.39 1.28 1.28 0 0 1 .96.41l.34-.34a1.6 1.6 0 0 0-.57-.41 1.77 1.77 0 0 0-.72-.15c-.26 0-.5.05-.7.15a1.78 1.78 0 0 0-.95.98c-.09.23-.13.47-.13.74s.04.52.13.75a1.73 1.73 0 0 0 .97.98 1.87 1.87 0 0 0 1.12.09zm4.02-3.64h-.5v3.64h.5v-3.64zm3.3 1.92h1.16v-.49h-1.16v-.94h1.51v-.49h-2.01v3.64h2.06v-.5h-1.56v-1.22zm.66-2.18l.53-.78h-.53l-.33.78h.33zm3.21.75h.96v3.15h.5V41.9h.96v-.49h-2.42v.5zm6-1.53l-.32.78h.33l.53-.78h-.53zm-1.15 4.68h2.06v-.5H30v-1.22h1.16v-.49H30v-.94h1.51v-.49H29.5v3.64zm7.13-3.9h.33l-.33-.78h-.52l.52.78zm-.56 2.96h1.48l.37.94h.52L37 41.42h-.36l-1.46 3.64h.53l.37-.94zm.74-1.84l.54 1.35h-1.08l.54-1.35zM2.54 48.65l-1.36-2.22H.83v3.64h.5v-2.45l1.04 1.67h.35l1.03-1.67v2.45h.5v-3.64H3.9l-1.36 2.22zm6.28-2.22h-.5v3.64h.5v-3.64zm5.95 2.12a.98.98 0 0 0-.15-.18 1.47 1.47 0 0 0-.17-.14 2.26 2.26 0 0 0-.38-.2 8.24 8.24 0 0 1-.4-.18 1.26 1.26 0 0 1-.3-.2.37.37 0 0 1-.13-.29c0-.08.02-.15.05-.2a.48.48 0 0 1 .14-.16.6.6 0 0 1 .18-.1.73.73 0 0 1 .22-.03.95.95 0 0 1 .63.25l.3-.38a1.49 1.49 0 0 0-.64-.33 1.31 1.31 0 0 0-.74.04.98.98 0 0 0-.56.52.89.89 0 0 0-.08.38c0 .18.04.34.13.47.09.13.2.24.32.32a2 2 0 0 0 .39.2l.4.18c.11.07.22.14.3.22a.46.46 0 0 1 .12.34.49.49 0 0 1-.05.22.56.56 0 0 1-.33.29.7.7 0 0 1-.23.04.9.9 0 0 1-.5-.14 1.4 1.4 0 0 1-.36-.33l-.35.35c.16.2.34.35.56.45.2.1.43.16.67.16.16 0 .3-.03.43-.08.14-.05.25-.12.35-.2a1 1 0 0 0 .23-.34c.06-.13.09-.28.09-.44a.9.9 0 0 0-.14-.5zm6.22 0a.97.97 0 0 0-.15-.18 1.46 1.46 0 0 0-.17-.14 2.25 2.25 0 0 0-.38-.2 8.24 8.24 0 0 1-.39-.18 1.26 1.26 0 0 1-.3-.2.37.37 0 0 1-.13-.29c0-.08.02-.15.05-.2a.48.48 0 0 1 .13-.16.6.6 0 0 1 .19-.1.73.73 0 0 1 .21-.03.95.95 0 0 1 .63.25l.3-.38a1.49 1.49 0 0 0-.64-.33 1.31 1.31 0 0 0-.73.04.98.98 0 0 0-.56.52.89.89 0 0 0-.08.38c0 .18.04.34.12.47.09.13.2.24.32.32.12.08.25.15.4.2l.39.18c.12.07.22.14.3.22a.46.46 0 0 1 .13.34.48.48 0 0 1-.05.22.56.56 0 0 1-.33.29.7.7 0 0 1-.24.04.9.9 0 0 1-.49-.14c-.14-.09-.26-.2-.37-.33l-.35.35a1.594 1.594 0 0 0 1.24.61c.15 0 .3-.03.43-.08s.24-.12.34-.2a1.02 1.02 0 0 0 .32-.78 1 1 0 0 0-.04-.28.9.9 0 0 0-.1-.23zm4.43-2.12h-.5v3.64h.5v-3.64zm6.74.49a1.7 1.7 0 0 0-1.26-.54 1.7 1.7 0 0 0-1.25.54 1.83 1.83 0 0 0-.37.59 1.99 1.99 0 0 0-.14.74 1.98 1.98 0 0 0 .51 1.33 1.7 1.7 0 0 0 1.25.54 1.7 1.7 0 0 0 1.26-.54 1.86 1.86 0 0 0 .5-1.33 2 2 0 0 0-.13-.74 1.83 1.83 0 0 0-.37-.6zm-.1 1.88a1.32 1.32 0 0 1-.26.43 1.2 1.2 0 0 1-.9.4 1.2 1.2 0 0 1-.9-.4 1.33 1.33 0 0 1-.26-.43 1.53 1.53 0 0 1-.1-.55c0-.2.04-.38.1-.55.06-.17.15-.31.27-.44a1.19 1.19 0 0 1 .9-.39 1.2 1.2 0 0 1 .9.4c.1.12.2.26.26.43a1.56 1.56 0 0 1 0 1.1zm5.88-2.37v2.67l-2.1-2.67h-.36v3.64h.5V47.4l2.11 2.67h.36v-3.64h-.5zm.5-11.66H.84v3.02h37.61v-3.02zm-25.29-23.8L22 25.24h3l8.84-14.29v20.96h4.31V.77h-3.01L23.51 19.78 11.87.78H8.84v31.14h4.31V10.96zm-12.12 20c.09.18.22.33.4.47.17.15.4.26.67.34l.24-.76a1.32 1.32 0 0 1-.56-.37.95.95 0 0 1-.22-.65c0-.14.03-.27.08-.4a.88.88 0 0 1 .22-.3c.1-.07.2-.14.31-.18a.96.96 0 0 1 .36-.07c.24 0 .46.05.65.17.2.11.43.29.68.52l2.27 2.05h.54v-3.6h-.79v2.29l-1.65-1.5a4.2 4.2 0 0 0-.78-.56 1.89 1.89 0 0 0-.92-.23 1.7 1.7 0 0 0-1.23.52A1.87 1.87 0 0 0 .78 30a2.2 2.2 0 0 0 .25.97zm.62-4.27c.27.16.59.28.95.35a5.82 5.82 0 0 0 2.33 0c.36-.07.68-.19.95-.35.27-.16.48-.38.64-.64.15-.26.23-.57.23-.95s-.08-.7-.23-.96a1.83 1.83 0 0 0-.64-.63 3.01 3.01 0 0 0-.95-.36 5.74 5.74 0 0 0-1.17-.1c-.4 0-.8.03-1.16.1a2.99 2.99 0 0 0-.95.36c-.26.16-.48.37-.64.63-.15.26-.23.58-.23.96s.08.7.23.95c.16.26.38.47.64.64zm.1-2.17c.11-.16.28-.28.48-.37.2-.1.44-.16.7-.2a6.02 6.02 0 0 1 1.67 0c.26.04.5.1.7.2.2.09.37.21.49.37a.93.93 0 0 1 .18.58.92.92 0 0 1-.18.58c-.12.15-.28.28-.49.37a2.63 2.63 0 0 1-.7.2 5.82 5.82 0 0 1-1.66 0 2.6 2.6 0 0 1-.71-.2 1.26 1.26 0 0 1-.49-.37.91.91 0 0 1-.18-.58c0-.23.06-.43.18-.58zm-.72-3.06c.09.17.22.33.4.47.18.14.4.25.67.33l.24-.76a1.32 1.32 0 0 1-.56-.36.95.95 0 0 1-.22-.66.94.94 0 0 1 .08-.39.88.88 0 0 1 .22-.3 1.03 1.03 0 0 1 .67-.26c.24 0 .46.06.65.17.2.12.43.3.69.53l2.26 2.04h.54v-3.6h-.79v2.3l-1.65-1.51a4.2 4.2 0 0 0-.78-.56 1.88 1.88 0 0 0-.92-.23 1.7 1.7 0 0 0-1.23.52 1.87 1.87 0 0 0-.52 1.3 2.18 2.18 0 0 0 .25.97zm0-4.45c.09.17.22.33.4.47.18.14.4.25.67.33l.24-.76a1.32 1.32 0 0 1-.56-.37.95.95 0 0 1-.22-.65c0-.14.03-.27.08-.39a.88.88 0 0 1 .22-.3 1.03 1.03 0 0 1 .67-.26c.24 0 .46.06.65.17.2.11.43.29.69.52l2.26 2.05h.54v-3.6h-.79v2.29l-1.65-1.5a4.2 4.2 0 0 0-.78-.56 1.89 1.89 0 0 0-.92-.23 1.7 1.7 0 0 0-1.23.52 1.87 1.87 0 0 0-.52 1.3 2.19 2.19 0 0 0 .25.97zm3.86-6.6h-.67V13h.67v-2.57zm-3.86-1.8c.09.18.22.33.4.47.17.15.4.26.67.34l.24-.76a1.32 1.32 0 0 1-.56-.37.96.96 0 0 1-.22-.66c0-.14.03-.27.08-.38a.88.88 0 0 1 .22-.3c.1-.08.2-.15.31-.2a.96.96 0 0 1 .36-.06c.24 0 .46.05.65.17.2.11.43.29.68.52l2.27 2.05h.54v-3.6h-.79v2.29l-1.65-1.5a4.2 4.2 0 0 0-.78-.56 1.88 1.88 0 0 0-.92-.23 1.7 1.7 0 0 0-1.23.52 1.87 1.87 0 0 0-.52 1.3 2.2 2.2 0 0 0 .25.97zm.62-5.92L3.1 3.98h.54a3.7 3.7 0 0 1-.06-.26 2.3 2.3 0 0 1-.03-.44 1.4 1.4 0 0 1 .34-.93c.1-.11.23-.2.38-.27a1.24 1.24 0 0 1 .97 0 1.31 1.31 0 0 1 .72 1.14c0 .26-.06.49-.17.7a1.08 1.08 0 0 1-.44.44l.4.71c.33-.18.57-.43.74-.77a2.5 2.5 0 0 0 .1-1.91 1.97 1.97 0 0 0-2.53-1.13 1.86 1.86 0 0 0-.57.34 1.97 1.97 0 0 0-.42.51c-.1.2-.18.41-.21.64L1.4 1.43H.86v3.34h.79V2.7z"/></svg>