<svg xmlns="http://www.w3.org/2000/svg" aria-hidden="true" focusable="false"><symbol id="logo-sezane" viewBox="0 0 126 41"><path d="M104.9 21.4h2.4c.5 0 1-.1 1.5-.1.4-.1.9-.1 1.3-.2.5-.1.9-.1 1.4-.3.2-.1.5-.1.8-.1.5-.1 1.1-.1 1.7-.2.5-.1 1-.1 1.6-.2.3 0 .7-.1 1-.2l2.4-.6 1.6-.3c.5-.1 1-.2 1.5-.4s1.1-.3 1.6-.4c.5-.1.9-.3 1.3-.5s.6-.1.8.3c.1.2.2.4.2.7 0 .3-.2.5-.4.7-.4.2-.8.3-1.2.4l-1.7.3c-.3 0-.6.1-.8.2-.8.2-1.6.3-2.5.5-1.4.3-2.8.5-4.1 1-.4.1-.7.3-1.1.4-.5.2-.9.3-1.4.4-.5.1-1 .2-1.5.2-.6.1-1.1.2-1.7.2-.3.2-.7 0-1 .2h-.1c-.4 0-.9.1-1.3.1s-.8 0-1.2.1c-.2.1-.5 0-.7.1-.7.1-1.3.2-2 0-.2-.1-.5-.1-.8-.1-.6-.1-1.2-.2-1.8-.5-.7-.4-1.1-.9-1.4-1.6-.1-.2-.2-.4-.3-.7-.1-.2-.1-.2-.3-.1-.5.2-1.1.4-1.6.7-.6.3-1.2.4-1.8.6-.7.2-1.4.3-2.1.4-.5.1-1 .2-1.5 0s-.9-.4-1.2-.8c-.4-.7-.6-1.4-.7-2.1-.1-.7-.1-1.3-.1-2 0-.4.1-.7.2-1.1.1-.4.2-.7.2-1.1 0-.2-.1-.3-.3-.3-.2 0-.4.1-.7.2-.4.1-.8.4-1.2.7l-1.3 1c-.6.5-1.2 1-1.9 1.5-.6.5-1.2.9-1.8 1.4-.8.6-1.6 1.1-2.4 1.7-.2.1-.5.2-.7.2-.4.1-.6 0-.8-.4-.2-.4-.4-.7-.6-1.1-.1-.3-.1-.7-.1-1 0-.7.4-1.3.6-1.9l.9-1.8v-.1s-.1 0-.1.1l-.4.4c-.5.5-1 .9-1.5 1.3-.4.4-.9.7-1.3 1.1-.5.4-1 .7-1.4 1.1l-1.8 1.2c-.6.4-1.3.8-1.9 1.1-.4.2-.7.4-1.1.6-.4.2-.8.3-1.2.2-.2 0-.5-.1-.6-.3-.6-.6-1-1.2-1.2-2-.1-.4-.2-.7 0-1.1V19h-.1c-.3.2-.5.4-.8.6-1.1.8-2.2 1.5-3.4 2.1-.5.2-.9.3-1.4.1-.3-.1-.6-.3-.8-.6-.5-.6-.9-1.2-1.3-1.9-.2-.2-.2-.2-.4-.1-.7.4-1.4.8-2.2 1.2-.4.2-.9.4-1.4.6-.5.2-.9.4-1.4.6-1 .5-2 1.1-3 1.6-.7.4-1.3.7-1.9 1.1-.1 0-.1.1-.2.2s-.1.1 0 .2.1.3.2.4c.4.6.7 1.3.9 2 .3 1 .3 2 .3 3.1 0 1-.3 2-.7 2.9-.4.8-.9 1.5-1.4 2.2-.5.6-1 1.1-1.6 1.6-.8.7-1.6 1.3-2.5 1.8-1.1.6-2.3 1.1-3.5 1.6-.5.2-1 .3-1.5.3h-1.4c-.4 0-.8-.1-1.2-.2-.5-.1-.8-.5-1.1-.8-.2-.3-.4-.5-.6-.7-.5-.5-.7-1-.8-1.7 0-.2-.1-.3-.1-.5 0-.6.1-1.1.4-1.7.5-.9 1.1-1.8 1.7-2.7.8-1.1 1.7-2 2.7-2.9.4-.4.8-.7 1.2-1 .4-.3.7-.6 1.1-.9.6-.5 1.2-1 1.8-1.4.9-.7 1.8-1.3 2.7-1.8.1 0 .1-.1.1-.1.2-.2.2-.2 0-.3-.3-.3-.5-.6-.6-1-.1-.3-.2-.6-.3-1-.1-.4.1-1.1.7-1.3.6-.2 1.3-.4 1.9-.7.7-.3 1.4-.6 2-1.1.5-.4.9-.9 1.3-1.4.2-.3.1-.4-.1-.6-.4-.2-.8-.4-1.3-.4-1.5-.1-2.7.5-3.9 1.4-.7.5-1.4 1-2.2 1.6-.7.5-1.3 1-2 1.5-1.2.9-2.5 1.8-3.9 2.4-1 .4-1.9.7-3 .9-.4.1-.8.1-1.2.1-.5 0-1-.2-1.4-.5-.8-.5-1.2-1.3-1.5-2.1-.2-.5-.3-1-.4-1.5 0-.1-.1-.2-.1-.3-.1-.1-.2-.2-.3-.2-.4 0-.8 0-1.1.1-.2.1-.3.2-.3.4v1.6c0 1-.2 2-.6 3-.4 1-1 1.9-1.7 2.8-.7.9-1.5 1.5-2.5 1.9-.7.3-1.4.6-2.1.8-.5.1-1 .3-1.6.2-.6 0-1.2-.2-1.7-.5-.4-.2-.7-.6-1.1-.9-.5-.3-.9-.8-1.3-1.2l-.2-.2c-.4-.5-.4-1-.1-1.6.4-.8.9-1.5 1.6-2 .4-.4.9-.7 1.4-1 .4-.2.8-.5 1.2-.8.8-.5 1.5-.9 2.4-1.2.1 0 .2-.1.2-.1.9-.5 1.9-.9 2.8-1.3.2-.1.4-.2.7-.3.2-.1.2-.2.2-.4-.1-.2-.1-.4-.2-.6-.4-1.1-.8-2.2-1.2-3.4-.2-.6-.5-1.3-.7-1.9-.4-1.1-.8-2.2-1.1-3.3 0-.2-.1-.4-.1-.5V9c-.1 0-.2.1-.4.2-.1.1-.2.1-.2.2-1.8 1.8-3.7 3.6-5.4 5.5-.8.8-1.6 1.7-2.4 2.5-.5.6-1.1 1-1.7 1.6-.4.4-.9.8-1.4 1.1-.5.4-1.1.8-1.6 1.3l-1.4 1.1c-.7.5-1.4 1.1-2.1 1.5-.9.6-1.7 1.2-2.6 1.9-.1.1-.2.1-.3.2-.4.2-.7.4-1.2.4s-.9 0-1.3-.2H.2c-.1-.8-.2-.9-.2-1 0-.1.1-.1.2-.2.5-.2.9-.6 1.3-.9.5-.4.9-.8 1.4-1.1.5-.4.9-.8 1.4-1.1l1.4-1.1c.2-.2.5-.4.7-.6.6-.6 1.3-1.3 2-1.8.4-.3.8-.7 1.2-1 .6-.5 1.1-1 1.7-1.4.3-.2.5-.5.8-.7.4-.4.8-.7 1.2-1.1.4-.4.8-.8 1.3-1.1l.1-.1c.5-.5 1-.9 1.5-1.4.8-.8 1.6-1.6 2.4-2.3.8-.7 1.5-1.4 2.2-2.1.2-.2.3-.3.4-.5l.3-.3c.9-.6 1.5-1.4 2-2.3a15.26 15.26 0 0 1 3-3.6l.3-.3c.3-.3.6-.3.9-.1.2.2.5.3.7.5l.1.1c.3.2.3.2.2.6-.2.5-.5 1-.9 1.4l-1.1 1.1A8 8 0 0 0 25.2 6c-.3.6-.5 1.2-.5 1.8 0 .3-.1.6-.1.9 0 .7.2 1.4.4 2.1.3.7.5 1.5.9 2.2.3.6.5 1.2.7 1.7.4.9.7 1.9 1.1 2.9 0 .1 0 .1.1.2.1.2.3.3.4.2.5-.2 1-.1 1.5-.3.4-.1.7-.2.9-.6.3-.5.5-.9.8-1.4.5-.9 1.2-1.7 2-2.4.5-.4 1-.8 1.6-1.2.4-.2.9-.5 1.4-.6.2-.1.3-.1.5-.1.1-.1.3 0 .4.1.5.4 1 .8 1.3 1.4.3.5.4 1.1.4 1.7-.1.5-.2 1-.5 1.4-.4.5-.8.8-1.3 1.1-.9.5-1.8.9-2.8 1.2-.6.2-1.1.4-1.7.5-.4.1-.6.4-.6.7-.1.4-.1.8-.1 1.3 0 .6.4.9 1 .8 1.7-.3 3.3-1 4.9-1.8.8-.5 1.6-1 2.3-1.5l3.1-2.2c.8-.5 1.5-1.1 2.3-1.6.7-.5 1.5-.8 2.3-.9 1.1-.1 2.1-.1 3 .6l.2.2c.4.3.6.7.9 1 .3.4.5.9.6 1.4.1.6-.1 1.1-.4 1.6-.5.8-1.2 1.5-1.9 2.1-.4.4-1 .7-1.5 1-.2.1-.5.3-.6.5v.1c0 .1.1 0 .1 0l.6-.3c1.3-.8 2.7-1.5 4.1-2.2 1.1-.5 2.2-1.2 3.4-1.7 1.1-.5 2.2-1.1 3.3-1.6.4-.2.9-.5 1.3-.7.3-.2.5-.4.7-.7.3-.4.6-.7.9-1 .4-.3.7-.6 1-.9.9-.7 1.8-1.3 2.8-1.9.4-.2.7-.4 1.1-.7.7-.5 1.4-.8 2.2-1.1.5-.1 1.1-.3 1.6-.4.2 0 .5-.1.7-.1.5 0 .9.2 1.3.5.2.2.3.4.5.5.1 0 .1.1.1.1.2.5.4 1 .1 1.5-.1.3-.3.6-.5.8-1 1-1.8 2.1-2.6 3.2-.5.8-1 1.6-1.3 2.5-.2.5-.4 1-.5 1.6 0 .2-.1.5-.1.7 0 .1 0 .2.2.1.7-.4 1.5-.7 2.2-1.1.7-.4 1.4-.9 2.1-1.3.6-.3 1.3-.7 1.9-1.1.5-.3 1-.7 1.4-1.1l2.4-2.1c.4-.4.8-.7 1.2-1.1.5-.5 1-.9 1.5-1.4.2-.2.4-.1.5 0 .5.3.9.7 1.1 1.2.1.2 0 .4 0 .6-.2.5-.5 1-.8 1.5 0 .1-.1.2-.2.3-.3.6-.7 1.3-1 1.9-.3.5-.5 1-.8 1.6 0 .1-.1.2-.1.3v.1h.1c.3-.3.7-.4 1-.6.7-.5 1.5-1 2.2-1.6.7-.5 1.3-1 2-1.5.8-.5 1.5-1.1 2.3-1.6.2-.2.4-.3.7-.5.3-.2.7-.3 1.1-.2.4.1.7.3.9.6.3.4.6.8.7 1.4.1.4.2.7.1 1.1v.3c0 .6-.1 1.2-.2 1.8-.1.5-.2.9-.1 1.4 0 .4.3.7.7.7.4 0 .8-.1 1.1-.2 1.1-.4 2.3-.6 3.4-.9.5-.2 1-.3 1.5-.5.3-.1.5-.2.8-.4.2-.1.3-.3.4-.5.1-.3.3-.6.4-.9.3-.7.8-1.2 1.3-1.8.9-1 2-1.7 3.1-2.4.6-.4 1.2-.7 1.9-.8.3-.1.6-.2.9-.2.2 0 .4-.1.5-.1.4 0 .7 0 1.1.1.2 0 .3.2.4.4.3.3.4.7.2 1.1-.1.2-.2.4 0 .6v.2c-.1.7-.3 1.4-.9 1.8-.3.2-.6.4-1 .6-.9.5-1.8.9-2.7 1.4-.8.4-1.7.9-2.5 1.3a3 3 0 0 1-1 .4c-.3.1-.5.3-.7.5-.1.1-.1.3 0 .4.1.3.4.5.7.6.4.1.9.2 1.4.3.7.6 1.7.4 2.5.5zm-55.8 7.3c0-.6 0-1.3-.2-1.9a4 4 0 0 0-1-1.8c-.2-.2-.2-.2-.4 0-.2.1-.5.3-.7.5-1.2.7-2.3 1.4-3.5 2.1-.8.5-1.5 1.1-2.1 1.7l-1.6 1.6c-.3.3-.6.7-.9 1.1l-1.2 1.5c-.6.8-1.2 1.7-1.6 2.6-.2.4-.3.9-.2 1.4 0 .2.1.4.3.6.3.4.7.3 1.1.4.2 0 .4.1.5 0 .3-.1.6-.1.9-.1.6-.1 1.2-.2 1.8-.4 1.2-.3 2.2-.9 3.3-1.5.9-.5 1.8-1.2 2.6-1.9s1.5-1.4 2-2.3c.2-.4.5-.9.6-1.3.2-.7.3-1.5.3-2.3zm-23.2-8v-.6c0-.2-.1-.4-.2-.6-.1-.1-.1-.1-.2-.1-.5.2-.9.5-1.4.7-.4.2-.8.5-1.2.7-.3.1-.6.2-.8.5-.5.5-1 .9-1.6 1.4-.4.3-.8.6-1.1.9-.4.3-.8.7-1.1 1.2-.3.5-.6.9-.9 1.3-.4.5-.4 1-.2 1.6.1.2.3.4.5.4.4.1.7.1 1.1.1.2 0 .3-.1.5-.1.3 0 .5-.1.8-.1 1.5-.5 2.8-1.2 3.9-2.3.6-.6 1.1-1.4 1.3-2.2.6-1 .7-1.9.6-2.8zm35.5-1.2s0 .1 0 0c0 .3-.1.5.1.6.1.1.2-.1.4-.2.3-.1.5-.3.8-.4.1-.1.2-.1.4-.2 1.6-1 3.2-2.1 4.7-3.3.5-.4.9-.9 1.3-1.4.4-.5.8-1.1 1.1-1.6.3-.4.5-.8.8-1.2.1-.1.1-.2.1-.3 0-.1-.1-.2-.2-.2-.2.1-.5.1-.7.2-.4.2-.8.3-1.2.5-.9.4-1.8.9-2.7 1.4-.9.5-1.6 1.2-2.4 1.9-.7.6-1.4 1.3-1.9 2.1-.4.7-.7 1.3-.6 2.1zm45.4-5.9c-.9 0-1.6.3-2.3.8-.7.4-1.3.9-1.9 1.4-.5.4-.9.8-1.3 1.2l-.1.1h.1c.2-.1.4-.2.6-.2l2.1-.9c.8-.3 1.5-.7 2.2-1.2.4-.3.7-.6 1.1-.9.1-.1 0-.1 0-.2-.1-.1-.3-.1-.5-.1zm-72.7 2.7h.1c.6-.3 1.1-.6 1.6-1 .3-.2.5-.5.6-.8 0-.1.1-.1 0-.2 0-.1-.1 0-.2 0-.9.4-1.6 1-2.2 1.7 0 .1-.1.1-.1.2.2 0 .1 0 .2.1z"/><path d="M32.4 10.8c-.5.1-.9-.1-1.3-.5-.1-.1-.1-.2 0-.3.1-.1.2-.2.3-.2.4-.2.9-.4 1.3-.7.7-.4 1.4-.8 2.2-1.2.3-.2.6-.3.9-.5.9-.5 1.9-1 2.8-1.5.6-.4 1.3-.7 1.9-1 .3-.2.6-.3.9-.5.3-.2.7-.2 1-.3.2 0 .4.1.7.1.2.1.3.1.3.4V5c0 .2-.1.4-.3.6-.8.6-1.6 1.1-2.4 1.7-1.3.8-2.6 1.6-4 2.3-.9.4-1.9.8-2.9 1-.4.1-.9.3-1.4.2z"/></symbol><symbol id="logo-bcorp" viewBox="0 0 33 55"><path d="M9.86 16.07h6.57c1.6 0 3.7 0 4.79.66 1.2.72 2.13 2.01 2.13 3.8a4.2 4.2 0 0 1-2.69 4.07v.05c2.23.46 3.45 2.14 3.45 4.38 0 2.67-1.9 5.21-5.5 5.21H9.86V16.07zm2.41 7.81h4.82c2.74 0 3.86-1 3.86-2.9 0-2.52-1.78-2.88-3.86-2.88h-4.82v5.78zm0 8.32h6.04c2.07 0 3.4-1.27 3.4-3.25 0-2.37-1.9-3.03-3.93-3.03h-5.5v6.28z"/><path d="M30.27 25.16A13.8 13.8 0 0 1 16.5 38.98 13.8 13.8 0 0 1 2.73 25.16 13.8 13.8 0 0 1 16.5 11.34c7.6 0 13.77 6.2 13.77 13.82zM16.5 9.24C7.74 9.24.64 16.36.64 25.16s7.1 15.91 15.86 15.91a15.9 15.9 0 0 0 15.86-15.91c0-8.8-7.1-15.92-15.86-15.92zm15.83 35.2H.67v2.08h31.66v-2.09zm-1-2.3l.12-.01a.38.38 0 0 0 .1-.02.16.16 0 0 0 .06-.06.19.19 0 0 0 .02-.1.17.17 0 0 0-.02-.09.12.12 0 0 0-.06-.05.25.25 0 0 0-.08-.02h-.31v.35h.18zm.08-.5c.13 0 .23.03.3.08.06.05.09.13.09.24 0 .1-.03.17-.08.22a.39.39 0 0 1-.21.08l.31.49h-.18l-.3-.48h-.18v.48h-.18v-1.1h.43v-.01zm-.77.87a.77.77 0 0 0 .4.44.815.815 0 0 0 .61 0 .77.77 0 0 0 .26-.18.72.72 0 0 0 .16-.26.85.85 0 0 0-.16-.9.78.78 0 0 0-.86-.16.75.75 0 0 0-.41.42.84.84 0 0 0-.06.32.75.75 0 0 0 .06.32zm-.16-.7a.94.94 0 0 1 .5-.49.92.92 0 0 1 .37-.07.94.94 0 0 1 .67.27.92.92 0 0 1 .28.67.9.9 0 0 1-.08.38.93.93 0 0 1-.2.3.9.9 0 0 1-.3.2 1 1 0 0 1-.74 0 .93.93 0 0 1-.57-.88.84.84 0 0 1 .07-.37zM4.5 2.25a1.22 1.22 0 0 0-.28-.32 1.31 1.31 0 0 0-.83-.29c-.28 0-.52.06-.72.17a1.35 1.35 0 0 0-.48.44 1.96 1.96 0 0 0-.27.63 3.19 3.19 0 0 0-.08.73c0 .24.02.48.08.7.06.23.15.44.27.62a1.36 1.36 0 0 0 1.2.6c.39 0 .7-.11.9-.35.22-.23.35-.54.4-.93h1.22c-.03.36-.11.68-.25.97a2.29 2.29 0 0 1-.53.74c-.22.2-.47.36-.77.47a2.85 2.85 0 0 1-.97.16 2.9 2.9 0 0 1-1.18-.23 2.51 2.51 0 0 1-.88-.63 2.8 2.8 0 0 1-.56-.95 3.49 3.49 0 0 1-.2-1.17c0-.43.07-.83.2-1.2.13-.36.31-.68.55-.95.24-.28.54-.5.9-.65A2.88 2.88 0 0 1 3.4.57c.32 0 .62.05.9.14.28.09.53.22.75.4a2.17 2.17 0 0 1 .82 1.52H4.65a1.02 1.02 0 0 0-.14-.4zm3.05 3.21c.17.17.42.25.74.25.23 0 .42-.05.6-.17a.74.74 0 0 0 .3-.37h1c-.16.5-.4.86-.74 1.08-.33.21-.73.32-1.2.32-.33 0-.62-.05-.88-.16a1.88 1.88 0 0 1-.67-.44 1.99 1.99 0 0 1-.42-.7 2.54 2.54 0 0 1-.15-.88c0-.31.05-.6.15-.87a2.05 2.05 0 0 1 1.1-1.16c.27-.1.55-.16.87-.16a1.84 1.84 0 0 1 1.57.76c.16.22.29.49.36.78.08.3.1.6.08.93H7.28c.02.36.1.63.28.8zm1.29-2.19c-.14-.14-.35-.22-.62-.22a.98.98 0 0 0-.46.1.89.89 0 0 0-.29.22.85.85 0 0 0-.15.29c-.03.1-.04.2-.05.27h1.85a1.3 1.3 0 0 0-.28-.66zm3.02-.97v.77h.01a1.4 1.4 0 0 1 .53-.64c.12-.08.25-.14.38-.18.14-.04.27-.06.42-.06.07 0 .15 0 .25.04v1.06a1.99 1.99 0 0 0-.2-.03l-.21-.01a1.22 1.22 0 0 0-.53.1.9.9 0 0 0-.35.3 1.12 1.12 0 0 0-.19.41 2.4 2.4 0 0 0-.05.53v1.87h-1.14V2.3h1.08zm4.63 0v.76h-.83v2.06c0 .2.03.33.1.4.05.05.18.09.37.09l.19-.01.17-.02v.88a2.86 2.86 0 0 1-.33.03 6.2 6.2 0 0 1-.34.01 3.4 3.4 0 0 1-.5-.03 1.12 1.12 0 0 1-.42-.15.75.75 0 0 1-.28-.3 1.07 1.07 0 0 1-.1-.5V3.06h-.7v-.77h.7V1.04h1.13V2.3h.84zm.66-.65V.7h1.14v.94h-1.14zm1.14.65v4.16h-1.14V2.29h1.14zm.45.76V2.3h.68v-.33c0-.37.12-.67.35-.9.23-.24.58-.36 1.04-.36l.3.01.3.02v.86a3.43 3.43 0 0 0-.41-.02c-.16 0-.27.03-.34.1-.06.08-.1.2-.1.37v.25h.79v.77h-.78v3.4h-1.14v-3.4h-.68zm3.38-1.4V.7h1.14v.94h-1.14zm1.14.64v4.16h-1.14V2.29h1.14zm1.8 3.16c.16.17.41.25.73.25.23 0 .43-.05.6-.17a.74.74 0 0 0 .3-.37h1c-.16.5-.4.86-.73 1.08-.34.21-.74.32-1.2.32-.33 0-.63-.05-.89-.16a1.88 1.88 0 0 1-.66-.44 1.98 1.98 0 0 1-.42-.7 2.54 2.54 0 0 1-.15-.88c0-.31.05-.6.15-.87a1.98 1.98 0 0 1 1.1-1.16c.26-.11.55-.17.86-.17a1.84 1.84 0 0 1 1.57.76c.17.23.3.49.37.78.07.3.1.6.08.93h-3c.02.37.11.64.28.8zm1.28-2.19c-.13-.14-.34-.22-.62-.22a.98.98 0 0 0-.45.1.89.89 0 0 0-.3.22.85.85 0 0 0-.14.29l-.06.27h1.85a1.32 1.32 0 0 0-.28-.66zm4.88 2.66a1.2 1.2 0 0 1-.52.49c-.22.1-.46.15-.74.15a1.76 1.76 0 0 1-.81-.19 1.62 1.62 0 0 1-.59-.49 2.31 2.31 0 0 1-.34-.7 2.95 2.95 0 0 1-.12-.85c0-.28.04-.54.12-.8a2.12 2.12 0 0 1 .34-.7 1.68 1.68 0 0 1 1.38-.66c.24 0 .48.06.7.16.22.11.4.26.52.47h.02V.7h1.14v5.75h-1.09v-.53zm-.05-2.06a1.22 1.22 0 0 0-.16-.42.92.92 0 0 0-.3-.3.87.87 0 0 0-.47-.1.92.92 0 0 0-.47.1.92.92 0 0 0-.31.3 1.38 1.38 0 0 0-.17.43 2.22 2.22 0 0 0 0 .97c.04.17.1.3.19.44.08.12.18.22.3.3.13.08.28.12.46.12a.9.9 0 0 0 .47-.11.86.86 0 0 0 .3-.3c.08-.13.13-.28.16-.44a2.48 2.48 0 0 0 0-.99zM3.45 50.62c-.06-.4-.44-.71-.88-.71-.8 0-1.1.68-1.1 1.39 0 .67.3 1.35 1.1 1.35.54 0 .85-.37.91-.9h.86c-.09 1-.78 1.65-1.77 1.65-1.25 0-1.98-.94-1.98-2.1 0-1.2.73-2.14 1.98-2.14.88 0 1.63.52 1.74 1.46h-.86zm2.74-.32c.92 0 1.51.6 1.51 1.54 0 .93-.59 1.54-1.5 1.54-.92 0-1.52-.61-1.52-1.54s.6-1.54 1.51-1.54zm0 2.48c.55 0 .71-.47.71-.93 0-.48-.16-.94-.7-.94-.55 0-.72.47-.72.94 0 .46.17.93.71.93zm2.01-2.4h.76v.54h.01c.15-.37.55-.63.94-.63a.6.6 0 0 1 .17.03v.75a1.54 1.54 0 0 0-.29-.03c-.58 0-.79.43-.79.94v1.32h-.8v-2.93zm2.2 0h.76v.37c.2-.31.51-.45.87-.45.92 0 1.33.74 1.33 1.57 0 .78-.43 1.51-1.28 1.51-.35 0-.68-.15-.87-.44h-.02v1.4h-.8v-3.96zm2.16 1.47c0-.47-.19-.95-.7-.95-.53 0-.7.47-.7.95s.19.93.7.93c.53 0 .7-.46.7-.93zm2.56-1.55c.92 0 1.51.6 1.51 1.54 0 .93-.59 1.54-1.51 1.54-.91 0-1.5-.61-1.5-1.54s.59-1.54 1.5-1.54zm0 2.48c.55 0 .71-.47.71-.93 0-.48-.16-.94-.71-.94-.54 0-.7.47-.7.94 0 .46.16.93.7.93zm2.01-2.4h.76v.54h.02c.14-.37.54-.63.93-.63a.6.6 0 0 1 .17.03v.75a1.5 1.5 0 0 0-.29-.03c-.59 0-.8.43-.8.94v1.32h-.8v-2.93h.01zm2.12.9c.04-.76.71-.98 1.37-.98.58 0 1.28.13 1.28.83v1.52c0 .27.03.53.1.66h-.81a1.2 1.2 0 0 1-.06-.29c-.25.27-.62.36-.98.36-.55 0-1-.27-1-.87 0-.67.5-.82 1-.9.5-.07.95-.05.95-.38 0-.35-.24-.4-.52-.4-.3 0-.5.13-.53.45h-.8zm1.85.6c-.14.11-.42.12-.67.17-.25.05-.47.13-.47.43s.23.37.49.37c.62 0 .65-.5.65-.67v-.3zm2.42-1.5h.59v.53h-.6v1.45c0 .28.08.34.35.34.08 0 .16 0 .25-.02v.63c-.14.02-.32.03-.47.03-.5 0-.92-.12-.92-.7v-1.72h-.49v-.54h.49v-.88h.8v.88zm2-.46h-.8v-.66h.8v.66zm-.8.46h.8v2.92h-.8v-2.92zm2.84-.08c.92 0 1.51.6 1.51 1.54 0 .93-.6 1.54-1.51 1.54-.92 0-1.5-.61-1.5-1.54s.58-1.54 1.5-1.54zm0 2.48c.55 0 .71-.47.71-.93 0-.48-.16-.94-.71-.94-.54 0-.7.47-.7.94 0 .46.16.93.7.93zm2.03-2.4h.76v.4h.02c.2-.33.55-.48.9-.48.84 0 1.06.48 1.06 1.2v1.8h-.8v-1.65c0-.48-.14-.72-.52-.72-.43 0-.62.24-.62.84v1.54h-.8v-2.93z"/></symbol><symbol id="logo-societeamission" viewBox="0 0 39 51"><path d="M1.76 45.1a1.176 1.176 0 0 0 .78-.27 1.05 1.05 0 0 0 .32-.77.9.9 0 0 0-.3-.7 1.44 1.44 0 0 0-.16-.14 2.26 2.26 0 0 0-.38-.2 8.06 8.06 0 0 1-.4-.18 1.27 1.27 0 0 1-.3-.2.38.38 0 0 1-.13-.29c0-.08.02-.15.05-.2a.48.48 0 0 1 .14-.16.6.6 0 0 1 .18-.1.72.72 0 0 1 .22-.03.95.95 0 0 1 .63.25l.3-.38a1.5 1.5 0 0 0-.64-.33 1.32 1.32 0 0 0-.74.04c-.13.05-.24.12-.33.21a.98.98 0 0 0-.23.31.89.89 0 0 0-.08.37c0 .2.04.35.13.48.08.13.19.24.32.32.12.08.24.15.39.2l.39.18c.12.07.23.14.3.22a.46.46 0 0 1 .13.34.49.49 0 0 1-.05.22.56.56 0 0 1-.33.29.7.7 0 0 1-.23.04.9.9 0 0 1-.5-.14 1.4 1.4 0 0 1-.36-.33l-.35.35a1.52 1.52 0 0 0 1.23.6zm6.55-3.2a1.7 1.7 0 0 0-1.25-.53c-.25 0-.48.05-.7.14a1.73 1.73 0 0 0-.55.4 1.83 1.83 0 0 0-.38.59 2 2 0 0 0-.13.74 1.98 1.98 0 0 0 .5 1.33 1.7 1.7 0 0 0 1.26.54 1.7 1.7 0 0 0 1.25-.54 1.86 1.86 0 0 0 .5-1.33 2 2 0 0 0-.13-.74 1.83 1.83 0 0 0-.37-.6zm-.09 1.89a1.32 1.32 0 0 1-.26.43 1.2 1.2 0 0 1-.9.4 1.19 1.19 0 0 1-.9-.4 1.33 1.33 0 0 1-.26-.43 1.54 1.54 0 0 1-.1-.55c0-.2.03-.38.1-.55.06-.17.15-.31.26-.44a1.19 1.19 0 0 1 .9-.39 1.2 1.2 0 0 1 .9.4c.11.12.2.26.26.43a1.56 1.56 0 0 1 0 1.1zm5.24 1.27a1.73 1.73 0 0 0 .97-.63l-.36-.33a1.7 1.7 0 0 1-.17.19 1.3 1.3 0 0 1-.5.28 1.13 1.13 0 0 1-.34.04c-.19 0-.36-.03-.52-.1a1.25 1.25 0 0 1-.7-.71c-.07-.17-.1-.36-.1-.56 0-.2.03-.38.1-.55.06-.17.15-.31.27-.44a1.21 1.21 0 0 1 .9-.39 1.28 1.28 0 0 1 .96.41l.34-.34a1.6 1.6 0 0 0-.57-.41 1.77 1.77 0 0 0-.72-.15c-.26 0-.5.05-.7.15a1.78 1.78 0 0 0-.95.98c-.09.23-.13.47-.13.74s.04.52.13.75a1.73 1.73 0 0 0 .97.98 1.87 1.87 0 0 0 1.12.09zm4.02-3.64h-.5v3.64h.5v-3.64zm3.3 1.92h1.16v-.49h-1.16v-.94h1.51v-.49h-2.01v3.64h2.06v-.5h-1.56v-1.22zm.66-2.18l.53-.78h-.53l-.33.78h.33zm3.21.75h.96v3.15h.5V41.9h.96v-.49h-2.42v.5zm6-1.53l-.32.78h.33l.53-.78h-.53zm-1.15 4.68h2.06v-.5H30v-1.22h1.16v-.49H30v-.94h1.51v-.49H29.5v3.64zm7.13-3.9h.33l-.33-.78h-.52l.52.78zm-.56 2.96h1.48l.37.94h.52L37 41.42h-.36l-1.46 3.64h.53l.37-.94zm.74-1.84l.54 1.35h-1.08l.54-1.35zM2.54 48.65l-1.36-2.22H.83v3.64h.5v-2.45l1.04 1.67h.35l1.03-1.67v2.45h.5v-3.64H3.9l-1.36 2.22zm6.28-2.22h-.5v3.64h.5v-3.64zm5.95 2.12a.98.98 0 0 0-.15-.18 1.47 1.47 0 0 0-.17-.14 2.26 2.26 0 0 0-.38-.2 8.24 8.24 0 0 1-.4-.18 1.26 1.26 0 0 1-.3-.2.37.37 0 0 1-.13-.29c0-.08.02-.15.05-.2a.48.48 0 0 1 .14-.16.6.6 0 0 1 .18-.1.73.73 0 0 1 .22-.03.95.95 0 0 1 .63.25l.3-.38a1.49 1.49 0 0 0-.64-.33 1.31 1.31 0 0 0-.74.04.98.98 0 0 0-.56.52.89.89 0 0 0-.08.38c0 .18.04.34.13.47.09.13.2.24.32.32a2 2 0 0 0 .39.2l.4.18c.11.07.22.14.3.22a.46.46 0 0 1 .12.34.49.49 0 0 1-.05.22.56.56 0 0 1-.33.29.7.7 0 0 1-.23.04.9.9 0 0 1-.5-.14 1.4 1.4 0 0 1-.36-.33l-.35.35c.16.2.34.35.56.45.2.1.43.16.67.16.16 0 .3-.03.43-.08.14-.05.25-.12.35-.2a1 1 0 0 0 .23-.34c.06-.13.09-.28.09-.44a.9.9 0 0 0-.14-.5zm6.22 0a.97.97 0 0 0-.15-.18 1.46 1.46 0 0 0-.17-.14 2.25 2.25 0 0 0-.38-.2 8.24 8.24 0 0 1-.39-.18 1.26 1.26 0 0 1-.3-.2.37.37 0 0 1-.13-.29c0-.08.02-.15.05-.2a.48.48 0 0 1 .13-.16.6.6 0 0 1 .19-.1.73.73 0 0 1 .21-.03.95.95 0 0 1 .63.25l.3-.38a1.49 1.49 0 0 0-.64-.33 1.31 1.31 0 0 0-.73.04.98.98 0 0 0-.56.52.89.89 0 0 0-.08.38c0 .18.04.34.12.47.09.13.2.24.32.32.12.08.25.15.4.2l.39.18c.12.07.22.14.3.22a.46.46 0 0 1 .13.34.48.48 0 0 1-.05.22.56.56 0 0 1-.33.29.7.7 0 0 1-.24.04.9.9 0 0 1-.49-.14c-.14-.09-.26-.2-.37-.33l-.35.35a1.594 1.594 0 0 0 1.24.61c.15 0 .3-.03.43-.08s.24-.12.34-.2a1.02 1.02 0 0 0 .32-.78 1 1 0 0 0-.04-.28.9.9 0 0 0-.1-.23zm4.43-2.12h-.5v3.64h.5v-3.64zm6.74.49a1.7 1.7 0 0 0-1.26-.54 1.7 1.7 0 0 0-1.25.54 1.83 1.83 0 0 0-.37.59 1.99 1.99 0 0 0-.14.74 1.98 1.98 0 0 0 .51 1.33 1.7 1.7 0 0 0 1.25.54 1.7 1.7 0 0 0 1.26-.54 1.86 1.86 0 0 0 .5-1.33 2 2 0 0 0-.13-.74 1.83 1.83 0 0 0-.37-.6zm-.1 1.88a1.32 1.32 0 0 1-.26.43 1.2 1.2 0 0 1-.9.4 1.2 1.2 0 0 1-.9-.4 1.33 1.33 0 0 1-.26-.43 1.53 1.53 0 0 1-.1-.55c0-.2.04-.38.1-.55.06-.17.15-.31.27-.44a1.19 1.19 0 0 1 .9-.39 1.2 1.2 0 0 1 .9.4c.1.12.2.26.26.43a1.56 1.56 0 0 1 0 1.1zm5.88-2.37v2.67l-2.1-2.67h-.36v3.64h.5V47.4l2.11 2.67h.36v-3.64h-.5zm.5-11.66H.84v3.02h37.61v-3.02zm-25.29-23.8L22 25.24h3l8.84-14.29v20.96h4.31V.77h-3.01L23.51 19.78 11.87.78H8.84v31.14h4.31V10.96zm-12.12 20c.09.18.22.33.4.47.17.15.4.26.67.34l.24-.76a1.32 1.32 0 0 1-.56-.37.95.95 0 0 1-.22-.65c0-.14.03-.27.08-.4a.88.88 0 0 1 .22-.3c.1-.07.2-.14.31-.18a.96.96 0 0 1 .36-.07c.24 0 .46.05.65.17.2.11.43.29.68.52l2.27 2.05h.54v-3.6h-.79v2.29l-1.65-1.5a4.2 4.2 0 0 0-.78-.56 1.89 1.89 0 0 0-.92-.23 1.7 1.7 0 0 0-1.23.52A1.87 1.87 0 0 0 .78 30a2.2 2.2 0 0 0 .25.97zm.62-4.27c.27.16.59.28.95.35a5.82 5.82 0 0 0 2.33 0c.36-.07.68-.19.95-.35.27-.16.48-.38.64-.64.15-.26.23-.57.23-.95s-.08-.7-.23-.96a1.83 1.83 0 0 0-.64-.63 3.01 3.01 0 0 0-.95-.36 5.74 5.74 0 0 0-1.17-.1c-.4 0-.8.03-1.16.1a2.99 2.99 0 0 0-.95.36c-.26.16-.48.37-.64.63-.15.26-.23.58-.23.96s.08.7.23.95c.16.26.38.47.64.64zm.1-2.17c.11-.16.28-.28.48-.37.2-.1.44-.16.7-.2a6.02 6.02 0 0 1 1.67 0c.26.04.5.1.7.2.2.09.37.21.49.37a.93.93 0 0 1 .18.58.92.92 0 0 1-.18.58c-.12.15-.28.28-.49.37a2.63 2.63 0 0 1-.7.2 5.82 5.82 0 0 1-1.66 0 2.6 2.6 0 0 1-.71-.2 1.26 1.26 0 0 1-.49-.37.91.91 0 0 1-.18-.58c0-.23.06-.43.18-.58zm-.72-3.06c.09.17.22.33.4.47.18.14.4.25.67.33l.24-.76a1.32 1.32 0 0 1-.56-.36.95.95 0 0 1-.22-.66.94.94 0 0 1 .08-.39.88.88 0 0 1 .22-.3 1.03 1.03 0 0 1 .67-.26c.24 0 .46.06.65.17.2.12.43.3.69.53l2.26 2.04h.54v-3.6h-.79v2.3l-1.65-1.51a4.2 4.2 0 0 0-.78-.56 1.88 1.88 0 0 0-.92-.23 1.7 1.7 0 0 0-1.23.52 1.87 1.87 0 0 0-.52 1.3 2.18 2.18 0 0 0 .25.97zm0-4.45c.09.17.22.33.4.47.18.14.4.25.67.33l.24-.76a1.32 1.32 0 0 1-.56-.37.95.95 0 0 1-.22-.65c0-.14.03-.27.08-.39a.88.88 0 0 1 .22-.3 1.03 1.03 0 0 1 .67-.26c.24 0 .46.06.65.17.2.11.43.29.69.52l2.26 2.05h.54v-3.6h-.79v2.29l-1.65-1.5a4.2 4.2 0 0 0-.78-.56 1.89 1.89 0 0 0-.92-.23 1.7 1.7 0 0 0-1.23.52 1.87 1.87 0 0 0-.52 1.3 2.19 2.19 0 0 0 .25.97zm3.86-6.6h-.67V13h.67v-2.57zm-3.86-1.8c.09.18.22.33.4.47.17.15.4.26.67.34l.24-.76a1.32 1.32 0 0 1-.56-.37.96.96 0 0 1-.22-.66c0-.14.03-.27.08-.38a.88.88 0 0 1 .22-.3c.1-.08.2-.15.31-.2a.96.96 0 0 1 .36-.06c.24 0 .46.05.65.17.2.11.43.29.68.52l2.27 2.05h.54v-3.6h-.79v2.29l-1.65-1.5a4.2 4.2 0 0 0-.78-.56 1.88 1.88 0 0 0-.92-.23 1.7 1.7 0 0 0-1.23.52 1.87 1.87 0 0 0-.52 1.3 2.2 2.2 0 0 0 .25.97zm.62-5.92L3.1 3.98h.54a3.7 3.7 0 0 1-.06-.26 2.3 2.3 0 0 1-.03-.44 1.4 1.4 0 0 1 .34-.93c.1-.11.23-.2.38-.27a1.24 1.24 0 0 1 .97 0 1.31 1.31 0 0 1 .72 1.14c0 .26-.06.49-.17.7a1.08 1.08 0 0 1-.44.44l.4.71c.33-.18.57-.43.74-.77a2.5 2.5 0 0 0 .1-1.91 1.97 1.97 0 0 0-2.53-1.13 1.86 1.86 0 0 0-.57.34 1.97 1.97 0 0 0-.42.51c-.1.2-.18.41-.21.64L1.4 1.43H.86v3.34h.79V2.7z"/></symbol></svg>